<svg id="图层_1" data-name="图层 1" xmlns="http://www.w3.org/2000/svg" viewBox="0 0 42.25 42.18"><path d="M18.09,7.87a22.55,22.55,0,0,0,3.36.71l.86.1.06-.33c.12-.74.25-1.5.38-2.24a31.64,31.64,0,0,1,1.1-5l.31-.88c-.69-.1-1.4-.17-2.09-.21h-.5a11.9,11.9,0,0,1-.71,2.82A19.3,19.3,0,0,1,19,6.56C18.72,7,18.41,7.42,18.09,7.87Z" transform="translate(0 0)"/><path d="M22,11.82a12.19,12.19,0,0,1,.14-1.6c-.76-.07-1.5-.19-2.25-.33a22.66,22.66,0,0,1-2.81-.71c-.17.21-.36.42-.55.62a21.48,21.48,0,0,1-4.13,3.54c-.43.29-.88.57-1.34.83A13,13,0,0,1,11.3,18a11.82,11.82,0,0,1-.2,1.57l.76-.1A87.43,87.43,0,0,0,22.24,17.4,28.17,28.17,0,0,1,22,11.82Z" transform="translate(0 0)"/><path d="M9.58,24.11c-.11.24-.23.46-.33.69a11.93,11.93,0,0,1,1.43.59A16.82,16.82,0,0,1,15,28.3l.12.11c2.26-3,4.44-6.06,6.4-9.24a88.19,88.19,0,0,1-10.83,2A21.66,21.66,0,0,1,9.58,24.11Z" transform="translate(0 0)"/><path d="M23.87,8.78A25.16,25.16,0,0,0,27,8.71c.45-1.08.86-2.17,1.26-3.29a32.69,32.69,0,0,0,1.07-3.75l-.48-.2a20.11,20.11,0,0,0-3.11-1A23.71,23.71,0,0,0,24.51,5c-.14.74-.26,1.5-.38,2.24C24,7.8,24,8.28,23.87,8.78Z" transform="translate(0 0)"/><path d="M24.68,10.35h-1a26.76,26.76,0,0,0-.05,5.37q1.47-2.64,2.71-5.39Z" transform="translate(0 0)"/><path d="M28.75,8.49A22.83,22.83,0,0,0,33.6,7.08,23.73,23.73,0,0,0,35.81,6a20.37,20.37,0,0,0-3-2.4,20.8,20.8,0,0,0-2.09-1.23,39,39,0,0,1-1.9,5.87A2.33,2.33,0,0,0,28.75,8.49Z" transform="translate(0 0)"/><path d="M29.2,10l-1.14.18c-.52,1.22-1.09,2.43-1.67,3.62-.5,1-1,2-1.56,2.9a84.65,84.65,0,0,0,8.44-3c2.11-.9,4.16-1.89,6.18-3-.12-.21-.24-.42-.36-.61a20.75,20.75,0,0,0-2.19-3,22,22,0,0,1-2.32,1.18A22.53,22.53,0,0,1,29.2,10Z" transform="translate(0 0)"/><path d="M24,18.52a22.58,22.58,0,0,0,4.09,8.9l.17.23a27.91,27.91,0,0,1,3.11-4.07,26,26,0,0,1,4.85-4.16,28,28,0,0,1,5.45-2.78,19.71,19.71,0,0,0-.55-2,22.61,22.61,0,0,0-1-2.51c-1.24.68-2.49,1.3-3.76,1.89A82.25,82.25,0,0,1,24,18.52Z" transform="translate(0 0)"/><path d="M42,18.15c-.24.09-.5.19-.74.3A25,25,0,0,0,31.1,26.3a29.13,29.13,0,0,0-1.73,2.54,32.33,32.33,0,0,0,3.73,3.38c1.26,1,2.57,1.86,3.88,2.74a21.47,21.47,0,0,0,2.18-3,22.11,22.11,0,0,0,2-4.16,21.41,21.41,0,0,0,1-4.47A21.37,21.37,0,0,0,42,18.15Z" transform="translate(0 0)"/><path d="M24.75,24.94a26,26,0,0,1-1.92-4.89c-2,3.26-4.28,6.41-6.59,9.46.31.35.62.71.91,1.09A25.24,25.24,0,0,1,19,33.22a24,24,0,0,1,1.5,3,16.41,16.41,0,0,1,2.5-.46h2c.18-.77.38-1.53.63-2.29A26.77,26.77,0,0,1,27.47,29,22.67,22.67,0,0,1,24.75,24.94Z" transform="translate(0 0)"/><path d="M24.66,37.26h-.4a13.34,13.34,0,0,0-1.79.12,11.5,11.5,0,0,0-1.42.28c.14.36.26.72.38,1.08.37,1.12.66,2.28.92,3.44a15.76,15.76,0,0,0,2.28-.26,6,6,0,0,1-.12-.61,10.68,10.68,0,0,1,0-2.65A10.89,10.89,0,0,1,24.66,37.26Z" transform="translate(0 0)"/><path d="M33.22,34.24a35.34,35.34,0,0,1-4.64-4c-.3.57-.57,1.16-.83,1.74a25.15,25.15,0,0,0-1.24,3.89,14.23,14.23,0,0,1,2.55.72A19.16,19.16,0,0,1,32,38.05c.29.17.58.36.88.55l.07-.05a20.18,20.18,0,0,0,3-2.45l-.12-.1A28.34,28.34,0,0,1,33.22,34.24Z" transform="translate(0 0)"/><path d="M26.2,37.41a8.74,8.74,0,0,0-.14.87A11.25,11.25,0,0,0,26,41a3.24,3.24,0,0,0,.12.62,21.12,21.12,0,0,0,5.24-2.07A21.6,21.6,0,0,0,29,38.26,16.14,16.14,0,0,0,26.2,37.41Z" transform="translate(0 0)"/><path d="M11.94,32.56h0l-.1.14A.71.71,0,0,0,11.94,32.56Z" transform="translate(0 0)"/><path d="M14,29.89l.19-.24c-.4-.38-.82-.74-1.26-1.09a17.77,17.77,0,0,0-3.39-2l-1-.4A35.48,35.48,0,0,1,6.4,29.44c-.86,1.23-1.79,2.4-2.72,3.57a10.53,10.53,0,0,0,.76,1,20.93,20.93,0,0,0,3,3.17l.24.21a43.09,43.09,0,0,0,4.2-4.85C12.63,31.68,13.31,30.79,14,29.89Z" transform="translate(0 0)"/><path d="M19,36.64a24.32,24.32,0,0,0-2.84-4.82c-.28-.36-.57-.71-.88-1.05-.16.19-.3.38-.45.57-1.63,2.1-3.2,4.26-5,6.19-.27.28-.53.57-.81.83a20.48,20.48,0,0,0,2.28,1.4c.5.26,1,.52,1.54.74h0a15.32,15.32,0,0,1,1.57-1.33,14.86,14.86,0,0,1,2.37-1.55C17.5,37.26,18.24,36.93,19,36.64Z" transform="translate(0 0)"/><path d="M18.72,38.4a15.79,15.79,0,0,0-3.21,1.86c-.36.28-.72.57-1.07.88.33.12.66.22,1,.31a21.08,21.08,0,0,0,4.54.73h.74a39.53,39.53,0,0,0-1.19-4.12Z" transform="translate(0 0)"/><path d="M6.14,20,8,19.86a13.56,13.56,0,0,0,1.43-.13c.09-.37.16-.75.21-1.11a12.69,12.69,0,0,0,0-3.14,5.67,5.67,0,0,0-.1-.57A22.49,22.49,0,0,1,6.3,16.19a20.67,20.67,0,0,1-5.9.89,19.48,19.48,0,0,0-.4,3.4c1.43,0,2.86-.15,4.28-.29Z" transform="translate(0 0)"/><path d="M5.56,23.92a18,18,0,0,1,2.19.41c.27-.53.52-1.07.76-1.62s.36-.93.53-1.4l-.69.07L5,21.68c-1.12.1-2.25.22-3.39.29L0,22a13.41,13.41,0,0,0,.19,2H.31a18.1,18.1,0,0,1,3.12-.28A17,17,0,0,1,5.56,23.92Z" transform="translate(0 0)"/><path d="M7,25.75c-.46-.11-.94-.21-1.43-.28a19.06,19.06,0,0,0-2.14-.14,19.6,19.6,0,0,0-2.17.14,4.45,4.45,0,0,0-.73.12v.18A21.26,21.26,0,0,0,2,30.17a15.53,15.53,0,0,0,.76,1.46c.32-.39.63-.81.94-1.21A41,41,0,0,0,7,25.75Z" transform="translate(0 0)"/><path d="M13.1,5.45a14.36,14.36,0,0,0,3,1.71,4.13,4.13,0,0,0,.45.17h0A20.44,20.44,0,0,0,19.14,3,12.55,12.55,0,0,0,20,0h-.1a21.11,21.11,0,0,0-4.59.79,21.79,21.79,0,0,0-4.18,1.73l-.41.22a8.07,8.07,0,0,0,.64,1A8.81,8.81,0,0,0,13.1,5.45Z" transform="translate(0 0)"/><path d="M8.53,9a13,13,0,0,1,1.36,2c.26.52.5,1.05.71,1.59a21.78,21.78,0,0,0,2.2-1.49,22.28,22.28,0,0,0,2.7-2.53l-.35-.16a13.68,13.68,0,0,1-4-2.59A10.86,10.86,0,0,1,9.66,4c-.08-.13-.17-.27-.25-.43a24.72,24.72,0,0,0-2,1.54c-.43.36-.84.76-1.27,1.19A24.54,24.54,0,0,1,8.53,9Z" transform="translate(0 0)"/><path d="M8,13.94c.42-.17.83-.38,1.25-.58-.09-.26-.18-.52-.28-.78a12.56,12.56,0,0,0-1.42-2.43A20.24,20.24,0,0,0,5.09,7.46c-.24.27-.48.58-.74.93A20.44,20.44,0,0,0,2,12.24,20,20,0,0,0,.81,15.51a16.67,16.67,0,0,0,2-.15A20.81,20.81,0,0,0,8,13.94Z" transform="translate(0 0)"/></svg>