<svg width="16" height="16" viewBox="0 0 16 16" fill="none" xmlns="http://www.w3.org/2000/svg">
<path d="M1.33337 3.5C1.33337 2.92536 1.56165 2.37426 1.96798 1.96793C2.3743 1.56161 2.9254 1.33333 3.50004 1.33333H10.5C11.0747 1.33333 11.6258 1.56161 12.0321 1.96793C12.4384 2.37426 12.6667 2.92536 12.6667 3.5V7.522C12.4147 7.39787 12.1376 7.33332 11.8567 7.33333H11.6667V3.5C11.6667 3.19058 11.5438 2.89383 11.325 2.67504C11.1062 2.45625 10.8095 2.33333 10.5 2.33333H3.50004C3.19062 2.33333 2.89388 2.45625 2.67508 2.67504C2.45629 2.89383 2.33337 3.19058 2.33337 3.5V11.1667C2.33337 11.8107 2.85604 12.3333 3.50004 12.3333H5.74671L4.90471 13.3333H3.50004C2.9254 13.3333 2.3743 13.1051 1.96798 12.6987C1.56165 12.2924 1.33337 11.7413 1.33337 11.1667V3.5ZM4.50004 4C4.36743 4 4.24026 4.05268 4.14649 4.14645C4.05272 4.24021 4.00004 4.36739 4.00004 4.5C4.00004 4.63261 4.05272 4.75979 4.14649 4.85355C4.24026 4.94732 4.36743 5 4.50004 5H9.50004C9.63265 5 9.75983 4.94732 9.85359 4.85355C9.94736 4.75979 10 4.63261 10 4.5C10 4.36739 9.94736 4.24021 9.85359 4.14645C9.75983 4.05268 9.63265 4 9.50004 4H4.50004ZM4.71337 8.28933C4.75352 8.20293 4.81751 8.12979 4.89783 8.07853C4.97814 8.02727 5.07143 8.00002 5.16671 8H11.8567C12.0267 8.00008 12.1946 8.03729 12.3486 8.10903C12.5027 8.18077 12.6393 8.28531 12.7487 8.41533L15.2154 11.3447C15.2913 11.4348 15.3329 11.5488 15.3329 11.6667C15.3329 11.7845 15.2913 11.8985 15.2154 11.9887L12.7487 14.918C12.6393 15.048 12.5027 15.1526 12.3486 15.2243C12.1946 15.296 12.0267 15.3333 11.8567 15.3333H5.16671C5.07145 15.3334 4.97817 15.3062 4.89783 15.255C4.8175 15.2038 4.75347 15.1307 4.71326 15.0444C4.67306 14.958 4.65837 14.8619 4.6709 14.7675C4.68344 14.6731 4.72269 14.5842 4.78404 14.5113L7.18004 11.6667L4.78404 8.822C4.72265 8.74908 4.68338 8.66014 4.67086 8.56565C4.65834 8.47116 4.67309 8.37505 4.71337 8.28867V8.28933ZM6.24137 9L8.21604 11.3447C8.29192 11.4348 8.33353 11.5488 8.33353 11.6667C8.33353 11.7845 8.29192 11.8985 8.21604 11.9887L6.24137 14.3333H11.8567C11.881 14.3333 11.9049 14.328 11.9269 14.3177C11.9489 14.3075 11.9684 14.2926 11.984 14.274L14.18 11.6667L11.984 9.05933C11.9684 9.04077 11.9489 9.02584 11.9269 9.0156C11.9049 9.00535 11.881 9.00002 11.8567 9H6.24137ZM4.50004 6C4.36743 6 4.24026 6.05268 4.14649 6.14645C4.05272 6.24021 4.00004 6.36739 4.00004 6.5C4.00004 6.63261 4.05272 6.75978 4.14649 6.85355C4.24026 6.94732 4.36743 7 4.50004 7H7.50004C7.63265 7 7.75983 6.94732 7.85359 6.85355C7.94736 6.75978 8.00004 6.63261 8.00004 6.5C8.00004 6.36739 7.94736 6.24021 7.85359 6.14645C7.75983 6.05268 7.63265 6 7.50004 6H4.50004Z" fill="#707684"/>
</svg>
