<svg width="16" height="16" viewBox="0 0 16 16" xmlns="http://www.w3.org/2000/svg">
    <path
        d="M5.96336 14.6667C5.42198 14.6705 4.89278 14.5061 4.44887 14.1962C4.00497 13.8863 3.66827 13.4461 3.4853 12.9366C3.30233 12.4271 3.28212 11.8733 3.42747 11.3518C3.57282 10.8303 3.87655 10.3668 4.29669 10.0253C3.99484 9.78104 3.75141 9.47236 3.58418 9.12189C3.41696 8.77141 3.33018 8.388 3.33018 7.99967C3.33018 7.61135 3.41696 7.22793 3.58418 6.87746C3.75141 6.52698 3.99484 6.21831 4.29669 5.97401C3.87603 5.63287 3.57181 5.16941 3.42614 4.64777C3.28047 4.12613 3.30056 3.5721 3.48363 3.06238C3.66669 2.55266 4.00368 2.11245 4.44794 1.80267C4.8922 1.4929 5.42178 1.32889 5.96336 1.33334H10.0367C10.5783 1.32889 11.1078 1.4929 11.5521 1.80267C11.9964 2.11245 12.3334 2.55266 12.5164 3.06238C12.6995 3.5721 12.7196 4.12613 12.5739 4.64777C12.4282 5.16941 12.124 5.63287 11.7034 5.97401C12.1239 6.31526 12.428 6.77876 12.5736 7.3004C12.7192 7.82204 12.6991 8.37603 12.516 8.88574C12.333 9.39544 11.9961 9.83568 11.5519 10.1455C11.1077 10.4554 10.5782 10.6196 10.0367 10.6153C9.52402 10.616 9.02234 10.4667 8.59336 10.186V12.0527C8.59036 12.7478 8.3118 13.4134 7.81877 13.9034C7.32574 14.3934 6.65849 14.6679 5.96336 14.6667V14.6667ZM5.94869 10.616C5.66582 10.6205 5.39057 10.7084 5.15753 10.8688C4.92449 11.0293 4.74406 11.255 4.63889 11.5176C4.53372 11.7802 4.50851 12.0681 4.56642 12.345C4.62434 12.6219 4.7628 12.8755 4.96441 13.074C5.16601 13.2725 5.42178 13.407 5.69957 13.4605C5.97736 13.5141 6.26479 13.4844 6.52574 13.3751C6.7867 13.2658 7.00954 13.0819 7.16628 12.8464C7.32302 12.6108 7.40666 12.3342 7.40669 12.0513V10.616H5.94802H5.94869V10.616ZM10.0374 6.56467C9.75379 6.56612 9.47701 6.65153 9.24194 6.81013C9.00686 6.96872 8.82404 7.19339 8.71652 7.45579C8.60901 7.71819 8.58163 8.00655 8.63784 8.28449C8.69404 8.56244 8.83132 8.8175 9.03235 9.0175C9.23337 9.21751 9.48913 9.35348 9.76736 9.40827C10.0456 9.46306 10.3338 9.43422 10.5956 9.32537C10.8575 9.21652 11.0812 9.03255 11.2386 8.79667C11.396 8.56079 11.48 8.28358 11.48 8.00001C11.4786 7.61838 11.3258 7.25291 11.0552 6.98381C10.7846 6.7147 10.4183 6.56396 10.0367 6.56467H10.0374V6.56467ZM5.96402 6.56467C5.58335 6.56264 5.21746 6.71191 4.94684 6.97965C4.67623 7.24739 4.52306 7.61167 4.52102 7.99234C4.51899 8.37301 4.66826 8.7389 4.936 9.00952C5.20374 9.28013 5.56802 9.43331 5.94869 9.43534H7.40669V6.56467H5.96402V6.56467ZM8.59336 2.51334V5.38467H10.036C10.4074 5.3864 10.7649 5.24429 11.0338 4.98813C11.3026 4.73197 11.4618 4.38166 11.478 4.01067V4.30067V3.94867C11.4764 3.56745 11.3239 3.20238 11.0538 2.93337C10.7836 2.66437 10.4179 2.51334 10.0367 2.51334H8.59336ZM5.96269 2.51334C5.58202 2.51334 5.21693 2.66456 4.94776 2.93374C4.67858 3.20292 4.52736 3.568 4.52736 3.94867C4.52736 4.32935 4.67858 4.69443 4.94776 4.96361C5.21693 5.23278 5.58202 5.38401 5.96269 5.38401H7.40669V2.51334H5.96269Z" />
</svg>