<svg xmlns="http://www.w3.org/2000/svg" viewBox="0 0 321 42.19" height="1em">
  <defs>
    <style>
      .cls-1 {
        fill: currentColor;
      }
    </style>
  </defs>
  <path class="cls-1"
    d="M18.09,7.87a22.55,22.55,0,0,0,3.36.71l.86.1.06-.33c.12-.74.25-1.5.38-2.24a31,31,0,0,1,1.1-5l.31-.88c-.69-.1-1.4-.17-2.09-.21a4.26,4.26,0,0,0-.5,0,11.78,11.78,0,0,1-.71,2.82A19.22,19.22,0,0,1,19,6.56C18.72,7,18.41,7.42,18.09,7.87Z" />
  <path class="cls-1"
    d="M22,11.82c0-.53.07-1.07.14-1.6-.76-.07-1.5-.19-2.25-.33a22.22,22.22,0,0,1-2.81-.71c-.17.21-.36.42-.55.62a21.79,21.79,0,0,1-4.13,3.54c-.43.29-.88.57-1.34.83A12.85,12.85,0,0,1,11.3,18a12,12,0,0,1-.2,1.57l.76-.1A89,89,0,0,0,22.24,17.4,28.15,28.15,0,0,1,22,11.82Z" />
  <path class="cls-1"
    d="M9.58,24.11c-.11.24-.23.46-.33.69a12.65,12.65,0,0,1,1.43.59A16.81,16.81,0,0,1,15,28.3a1.31,1.31,0,0,1,.12.11c2.26-3,4.44-6.06,6.4-9.24a88.11,88.11,0,0,1-10.83,2A22.73,22.73,0,0,1,9.58,24.11Z" />
  <path class="cls-1"
    d="M23.87,8.78A25,25,0,0,0,27,8.71c.45-1.08.86-2.17,1.26-3.29a32.12,32.12,0,0,0,1.07-3.75l-.48-.2a20.41,20.41,0,0,0-3.11-1A23.59,23.59,0,0,0,24.51,5c-.14.74-.26,1.5-.38,2.24C24,7.8,24,8.28,23.87,8.78Z" />
  <path class="cls-1"
    d="M24.68,10.35c-.35,0-.68,0-1,0a26.78,26.78,0,0,0-.05,5.37q1.47-2.64,2.71-5.39C25.77,10.34,25.21,10.35,24.68,10.35Z" />
  <path class="cls-1"
    d="M28.75,8.49A23,23,0,0,0,33.6,7.08,23.86,23.86,0,0,0,35.81,6a20.2,20.2,0,0,0-3-2.4,19.44,19.44,0,0,0-2.09-1.23,39,39,0,0,1-1.9,5.87A1.57,1.57,0,0,0,28.75,8.49Z" />
  <path class="cls-1"
    d="M29.2,10l-1.14.18c-.52,1.22-1.09,2.43-1.67,3.62-.5,1-1,2-1.56,2.9a83.64,83.64,0,0,0,8.44-3c2.11-.9,4.16-1.89,6.18-3-.12-.21-.24-.42-.36-.61a20.8,20.8,0,0,0-2.19-3,22,22,0,0,1-2.32,1.18A22.49,22.49,0,0,1,29.2,10Z" />
  <path class="cls-1"
    d="M24,18.52a24.21,24.21,0,0,0,1.26,4,23,23,0,0,0,2.83,4.9l.17.23a27.22,27.22,0,0,1,3.11-4.07,26.35,26.35,0,0,1,4.85-4.16,28,28,0,0,1,5.45-2.78,19.71,19.71,0,0,0-.55-2,23.42,23.42,0,0,0-1-2.51c-1.24.68-2.49,1.3-3.76,1.89A82.34,82.34,0,0,1,24,18.52Z" />
  <path class="cls-1"
    d="M42,18.15c-.24.09-.5.19-.74.3A25,25,0,0,0,31.1,26.3a29.85,29.85,0,0,0-1.73,2.54,32.41,32.41,0,0,0,3.73,3.38c1.26,1,2.57,1.86,3.88,2.74A20.82,20.82,0,0,0,39.16,32a21.49,21.49,0,0,0,2-4.16,21.32,21.32,0,0,0,1-4.47A21,21,0,0,0,42,18.15Z" />
  <path class="cls-1"
    d="M24.75,24.94a26,26,0,0,1-1.92-4.89c-2,3.26-4.28,6.41-6.59,9.46.31.35.62.71.91,1.09A25.06,25.06,0,0,1,19,33.22a23.61,23.61,0,0,1,1.5,3A15.62,15.62,0,0,1,23,35.76c.42,0,.83,0,1.25,0H25c.18-.77.38-1.53.63-2.29A26.65,26.65,0,0,1,27.47,29,23.34,23.34,0,0,1,24.75,24.94Z" />
  <path class="cls-1"
    d="M24.66,37.26h-.4a12,12,0,0,0-1.79.12,11.5,11.5,0,0,0-1.42.28c.14.36.26.72.38,1.08.37,1.12.66,2.28.92,3.44.74,0,1.5-.14,2.28-.26a4.38,4.38,0,0,1-.12-.61,10.68,10.68,0,0,1,0-2.65A12.43,12.43,0,0,1,24.66,37.26Z" />
  <path class="cls-1"
    d="M33.22,34.24a35.11,35.11,0,0,1-4.64-4c-.3.57-.57,1.16-.83,1.74a25.15,25.15,0,0,0-1.24,3.89,14,14,0,0,1,2.55.72A19.24,19.24,0,0,1,32,38.05c.29.17.58.36.88.55l.07-.05a19.42,19.42,0,0,0,3-2.45,1.25,1.25,0,0,0-.12-.08C34.91,35.46,34.05,34.86,33.22,34.24Z" />
  <path class="cls-1"
    d="M26.2,37.41a8.74,8.74,0,0,0-.14.87A11.52,11.52,0,0,0,26,41c0,.21.07.41.12.62a21,21,0,0,0,5.24-2.07A20.19,20.19,0,0,0,29,38.26,15.93,15.93,0,0,0,26.2,37.41Z" />
  <path class="cls-1" d="M11.94,32.56l0,0-.1.14A.61.61,0,0,0,11.94,32.56Z" />
  <path class="cls-1"
    d="M14,29.89a2.23,2.23,0,0,1,.19-.24c-.4-.38-.82-.74-1.26-1.09a17.17,17.17,0,0,0-3.39-2c-.34-.14-.69-.28-1-.4A36,36,0,0,1,6.4,29.44c-.86,1.23-1.79,2.4-2.72,3.57.22.33.48.68.76,1a21.11,21.11,0,0,0,3,3.17l.24.21a43.09,43.09,0,0,0,4.2-4.85C12.63,31.68,13.31,30.79,14,29.89Z" />
  <path class="cls-1"
    d="M19,36.64a24.32,24.32,0,0,0-2.84-4.82c-.28-.36-.57-.71-.88-1.05-.16.19-.3.38-.45.57-1.63,2.1-3.2,4.26-5,6.19-.27.28-.53.57-.81.83a20.83,20.83,0,0,0,2.28,1.4c.5.26,1,.52,1.54.74,0,0,0,0,0,0,.5-.47,1-.92,1.57-1.33a15.1,15.1,0,0,1,2.37-1.55A23.89,23.89,0,0,1,19,36.64Z" />
  <path class="cls-1"
    d="M18.72,38.4a16.14,16.14,0,0,0-3.21,1.86c-.36.28-.72.57-1.07.88a10.25,10.25,0,0,0,1,.31,21.32,21.32,0,0,0,4.54.73h.74a39.53,39.53,0,0,0-1.19-4.12C19.28,38.17,19,38.29,18.72,38.4Z" />
  <path class="cls-1"
    d="M6.14,20,8,19.86c.49,0,1-.08,1.43-.13.09-.37.16-.75.21-1.11a12.69,12.69,0,0,0,0-3.14,5.67,5.67,0,0,0-.1-.57A22.51,22.51,0,0,1,6.3,16.19a20.83,20.83,0,0,1-5.9.89,19.7,19.7,0,0,0-.4,3.4c1.43,0,2.86-.15,4.28-.29C4.92,20.12,5.54,20.07,6.14,20Z" />
  <path class="cls-1"
    d="M5.56,23.92a18.34,18.34,0,0,1,2.19.41c.27-.53.52-1.07.76-1.62s.36-.93.53-1.4l-.69.07L5,21.68c-1.12.1-2.25.22-3.39.29L0,22c0,.67.09,1.36.19,2H.31a18.19,18.19,0,0,1,3.12-.28A16.93,16.93,0,0,1,5.56,23.92Z" />
  <path class="cls-1"
    d="M7,25.75c-.46-.11-.94-.21-1.43-.28a19.22,19.22,0,0,0-2.14-.14,19.76,19.76,0,0,0-2.17.14c-.24,0-.49.07-.73.12,0,.05,0,.12,0,.18A21.12,21.12,0,0,0,2,30.17c.22.48.48,1,.76,1.46.32-.39.63-.81.94-1.21A40.33,40.33,0,0,0,7,25.75Z" />
  <path class="cls-1"
    d="M13.1,5.45a14.36,14.36,0,0,0,3,1.71,4.13,4.13,0,0,0,.45.17s0,0,0,0A20.39,20.39,0,0,0,19.14,3,12.48,12.48,0,0,0,20,0h-.1a21.09,21.09,0,0,0-4.59.79,21.47,21.47,0,0,0-4.18,1.73l-.41.22a7.38,7.38,0,0,0,.64,1A8.69,8.69,0,0,0,13.1,5.45Z" />
  <path class="cls-1"
    d="M8.53,9a13.16,13.16,0,0,1,1.36,2c.26.52.5,1.05.71,1.59a21.78,21.78,0,0,0,2.2-1.49,22.28,22.28,0,0,0,2.7-2.53l-.35-.16a13.67,13.67,0,0,1-4-2.59A10.34,10.34,0,0,1,9.66,4c-.08-.13-.17-.27-.25-.43a23.36,23.36,0,0,0-2,1.54c-.43.36-.84.76-1.27,1.19A26.3,26.3,0,0,1,8.53,9Z" />
  <path class="cls-1"
    d="M8,13.94c.42-.17.83-.38,1.25-.58-.09-.26-.18-.52-.28-.78a12.35,12.35,0,0,0-1.42-2.43A20.65,20.65,0,0,0,5.09,7.46c-.24.27-.48.58-.74.93A20.65,20.65,0,0,0,2,12.24,20.05,20.05,0,0,0,.81,15.51a16.51,16.51,0,0,0,2-.15A20.7,20.7,0,0,0,8,13.94Z" />
  <path class="cls-1"
    d="M72.86,10.21a3.94,3.94,0,0,1,4,3.91v8.25a3.92,3.92,0,0,1-4,3.89H66.25v5.89h-5V10.21Zm-1.13,11v-6H66.25v6Zm21.2-11a3.92,3.92,0,0,1,3.92,3.91v8.25A3.92,3.92,0,0,1,94.37,26l2.48,6.14H91.52l-2.39-5.86H86.34v5.86h-5V10.21Zm-2.14,11a1,1,0,0,0,1-1v-4a1,1,0,0,0-1-1H86.34v6Zm22.11-11a4,4,0,0,1,3.95,3.91l-.07,14.14a3.89,3.89,0,0,1-3.91,3.89h-7.72a3.88,3.88,0,0,1-3.88-3.89V14.12a3.9,3.9,0,0,1,3.88-3.91Zm-1.13,16.92V15.25h-5.49V27.13Zm21.16-16.92a3.91,3.91,0,0,1,3.89,3.91V28.23a3.92,3.92,0,0,1-3.89,3.92H121.3V10.21ZM131.8,26.07V16.29a1,1,0,0,0-1-1h-4.46V27.13h4.46A1,1,0,0,0,131.8,26.07Zm20,1.06V10.21h5V28.26a3.89,3.89,0,0,1-3.92,3.89h-7.71a3.87,3.87,0,0,1-3.89-3.89v-18h5V27.13Zm20-2.5h5v3.6A3.92,3.92,0,0,1,173,32.15h-7.68a3.93,3.93,0,0,1-3.92-3.92V14.12a3.92,3.92,0,0,1,3.92-3.91H173a3.91,3.91,0,0,1,3.92,3.91v3.61h-5V15.25h-5.49V27.13h5.49Zm9.53-14.42H197v5h-5.27v16.9h-5V15.25H181.4Zm37.9,0a3.94,3.94,0,0,1,3.95,3.91v8.25a3.93,3.93,0,0,1-3.95,3.89h-6.62v5.89h-5V10.21Zm-1.13,11v-6h-5.49v6Zm14.61-11V27.13h8.09v5H227.76V10.21Zm23.7,0,6.11,21.94h-5L256.7,29h-5.42l-.88,3.17h-5l6.12-21.94Zm-3.79,13.66h2.6L254,19.2Zm24.92-13.66h5V32.15h-5l-5.49-11.41V32.15h-5V10.21h5l5.49,11.44Zm23.33,5h-8.78v3.42h6.3v5h-6.3v3.44h8.78v5h-13.8V10.21h13.8Zm4.51-5H321v5h-5.27v16.9h-5V15.25h-5.27Z" />
</svg>