<svg width="16" height="16" viewBox="0 0 16 16" xmlns="http://www.w3.org/2000/svg">
    <path
        d="M5.14001 2.64003L3.50001 4.28153L2.86001 3.64153L2.14001 4.36003L3.14001 5.36003L3.50001 5.70303L3.86001 5.35953L5.86001 3.35953L5.14001 2.63953V2.64003ZM7.50001 3.50003V4.50003H14V3.50003H7.50001ZM5.14001 6.64003L3.50001 8.28203L2.86001 7.64003L2.14001 8.36003L3.14001 9.36003L3.50001 9.70303L3.86001 9.35953L5.86001 7.35953L5.14001 6.63953V6.64003ZM7.50001 7.50003V8.50003H14V7.50003H7.50001ZM5.14001 10.64L3.50001 12.2815L2.86001 11.6415L2.14001 12.36L3.14001 13.36L3.50001 13.703L3.86001 13.3595L5.86001 11.3595L5.14001 10.6395V10.64ZM7.50001 11.5V12.5H14V11.5H7.50001Z" />
</svg>